<?xml version="1.0" encoding="UTF-8"?><svg id="Layer_1" xmlns="http://www.w3.org/2000/svg" viewBox="0 0 319.39 319.38"><defs><style>.cls-1{letter-spacing:0em;}.cls-2{letter-spacing:0em;}.cls-3{letter-spacing:.01em;}.cls-4{font-size:118.12px;}.cls-4,.cls-5{font-family:MyriadPro-Regular, 'Myriad Pro';}.cls-4,.cls-5,.cls-6{fill:#e3bc7a;}.cls-7{letter-spacing:0em;}.cls-8{letter-spacing:-.01em;}.cls-5{font-size:23.8px;}.cls-9{letter-spacing:0em;}.cls-10{letter-spacing:0em;}.cls-11{letter-spacing:0em;}.cls-12{fill:#666;}</style></defs><g><g><path class="cls-6" d="M24.74,159.76c0,73.18,59.32,132.5,132.5,132.5,.82,0,1.64-.01,2.45-.02v27.14C71.5,319.38,0,247.89,0,159.69S71.5,0,159.69,0V27.28c-.81,0-1.63-.02-2.45-.02C84.06,27.26,24.74,86.58,24.74,159.76Z"/><g><path class="cls-12" d="M160.69,293.22c71.8-1.83,130.05-61.5,130.05-133.46S232.49,28.14,160.69,26.3V1c87.05,.54,157.7,71.52,157.7,158.69s-70.65,158.15-157.7,158.69v-25.16Z"/><path class="cls-6" d="M161.69,2.01c41.37,.51,80.2,16.86,109.51,46.18,29.79,29.78,46.19,69.38,46.19,111.5s-16.4,81.72-46.19,111.51c-29.31,29.31-68.14,45.66-109.51,46.17v-23.18c71.89-2.36,130.05-62.26,130.05-134.43S233.58,27.69,161.69,25.33V2.01m-2-2.01V27.28c72.05,1.31,130.05,60.12,130.05,132.48s-58,131.17-130.05,132.48v27.14c88.2,0,159.7-71.49,159.7-159.69S247.89,0,159.69,0h0Z"/></g></g><text class="cls-4" transform="translate(59.99 190.52)"><tspan x="0" y="0">50%</tspan></text></g><text class="cls-5" transform="translate(80.18 240.18)"><tspan class="cls-8" x="0" y="0">C</tspan><tspan x="13.52" y="0">u</tspan><tspan class="cls-11" x="26.64" y="0">r</tspan><tspan class="cls-1" x="34.52" y="0">r</tspan><tspan x="42.06" y="0">e</tspan><tspan class="cls-2" x="53.99" y="0">n</tspan><tspan x="67.1" y="0">t win </tspan><tspan class="cls-3" x="121.38" y="0">R</tspan><tspan class="cls-7" x="134.47" y="0">a</tspan><tspan class="cls-10" x="145.85" y="0">t</tspan><tspan class="cls-9" x="153.58" y="0">e</tspan></text></svg>